<svg version="1.1" class="add-contact-icon" id="Layer_1" xmlns="http://www.w3.org/2000/svg" xmlns:xlink="http://www.w3.org/1999/xlink" x="0px" y="0px" viewBox="0 0 100 89.3" style="enable-background:new 0 0 100 89.3;" xml:space="preserve">
    <style type="text/css">
    	.st0 {
            fill: none;
            stroke: #000000;
            stroke-width: 4;
            stroke-linecap: round;
            stroke-linejoin: round;
            stroke-miterlimit: 10;
        }

    	.st1 {
            stroke: #000000;
            stroke-width: 0.9451;
            stroke-linecap: round;
            stroke-linejoin: round;
            stroke-miterlimit: 10;
        }
    </style>
    <path class="st0" d="M43.9,51.3c-1-0.3-2.1-0.8-3.2-1.3C47.3,47.3,52,40.8,52,33.3V22.2c0-9.9-9.4-19.8-20.7-19.8
    	c-11.3,0-20.7,9.9-20.7,19.8v11.1c0,7.6,4.8,14.2,11.5,16.8c-1.1,0.5-2.2,1-3.4,1.3c-7,1.7-16.5,7.4-16.5,16.5v19h58.3v-19
    	C60.4,58.8,49.5,52.9,43.9,51.3z"/>
    <polygon class="st1" points="99,42.5 87.5,42.5 87.5,31 76.9,31 76.9,42.5 65.4,42.5 65.4,53.2 76.9,53.2 76.9,64.6 87.5,64.6
    	87.5,53.2 99,53.2 "/>
</svg>
