<svg version="1.1" id="Layer_1" xmlns="http://www.w3.org/2000/svg" xmlns:xlink="http://www.w3.org/1999/xlink" x="0px" y="0px" viewBox="0 0 69.7 69.7" style="enable-background:new 0 0 69.7 69.7;" xml:space="preserve">
	<path class="st0" d="M34.9,8C20,8,8,20,8,34.9s12,26.9,26.9,26.9c14.8,0,26.9-12,26.9-26.9S49.7,8,34.9,8z M34.9,48.9
		c-7.7,0-14-6.3-14-14s6.3-14,14-14s14,6.3,14,14S42.6,48.9,34.9,48.9z"/>
	<polygon class="st0" points="13.5,44.9 0,40.9 0,28.8 13.5,24.8 "/>
	<polygon class="st0" points="56.2,24.8 69.7,28.8 69.7,40.9 56.2,44.9 "/>
	<g>
		<polygon class="st0" points="13.5,44.9 0,40.9 0,28.8 13.5,24.8 	"/>
		<polygon class="st0" points="56.2,24.8 69.7,28.8 69.7,40.9 56.2,44.9 	"/>
	</g>
	<g>
		<polygon class="st0" points="44.9,56.2 40.9,69.7 28.8,69.7 24.8,56.2 	"/>
		<polygon class="st0" points="24.8,13.5 28.8,0 40.9,0 44.9,13.5 	"/>
	</g>
	<g>
		<polygon class="st0" points="26.9,57 14.5,63.8 6,55.3 12.7,42.9 	"/>
		<polygon class="st0" points="42.9,12.7 55.3,6 63.8,14.5 57,26.9 	"/>
	</g>
	<g>
		<polygon class="st0" points="57,42.9 63.8,55.3 55.3,63.8 42.9,57 	"/>
		<polygon class="st0" points="12.7,26.9 6,14.5 14.5,6 26.9,12.7 	"/>
	</g>
</svg>
