<svg version="1.1" id="Layer_2" xmlns="http://www.w3.org/2000/svg" xmlns:xlink="http://www.w3.org/1999/xlink" x="0px" y="0px" viewBox="0 0 165.6 96.2" style="enable-background:new 0 0 165.6 96.2;" xml:space="preserve">
	<style type="text/css">
		.st0 {
			fill: none;
		}
	</style>
	<path class="st0" d="M115.2,95.3H50.1V74.1c0-10.2,10.7-16.6,18.5-18.5c1.3-0.3,2.6-0.8,3.8-1.4c-7.5-2.9-12.9-10.3-12.9-18.8V23
		c0-11.1,10.6-22.2,23.2-22.2c12.6,0,23.1,11.1,23.1,22.2v12.4c0,8.4-5.2,15.7-12.6,18.7c1.2,0.6,2.4,1.2,3.6,1.5
		c6.3,1.8,18.5,8.3,18.5,18.5V95.3z"/>
	<path d="M96.7,55.6c-1.2-0.3-2.4-0.9-3.6-1.5c7.4-3,12.6-10.3,12.6-18.7V23c0-11.1-10.5-22.2-23.1-22.2C70.1,0.8,59.5,11.9,59.5,23
		v12.4c0,8.5,5.4,15.8,12.9,18.8c-1.2,0.6-2.5,1.1-3.8,1.4c-7.8,1.9-18.5,8.3-18.5,18.5v21.2h65.2V74.1
		C115.2,63.9,103,57.3,96.7,55.6z"/>
	<g>
		<path class="st0" d="M96.7,55.6c-1.2-0.3-2.4-0.9-3.6-1.5c7.4-3,12.6-10.3,12.6-18.7V23c0-11.1-10.5-22.2-23.1-22.2
			C70.1,0.8,59.5,11.9,59.5,23v12.4c0,8.5,5.4,15.8,12.9,18.8c-1.2,0.6-2.5,1.1-3.8,1.4c-5.5,1.4-12.4,4.9-16,10.5c2.9,2.6,5,6,5,10
			v19.3h50.1V76c0-4.1,2-7.4,4.7-10C108.5,60.4,101.1,56.8,96.7,55.6z"/>
		<path d="M52.6,66c-1.5,2.3-2.5,5-2.5,8v21.2h7.5V76C57.6,72,55.4,68.7,52.6,66z"/>
		<path d="M107.7,76v19.3h7.5V74.1c0-3-1.1-5.7-2.8-8.1C109.7,68.6,107.7,71.9,107.7,76z"/>
		<path d="M49.4,63.6c-2.8-1.9-5.8-3.1-8-3.7c-1.3-0.4-2.7-1-4-1.8c7-3.2,11.9-10.2,11.9-18.4V34c0-11.1-9.1-20.2-20.2-20.2
			S9,22.9,9,34v5.7c0,8.2,5,15.4,12.2,18.5c-1.3,0.7-2.8,1.3-4.3,1.7C10.1,61.6,0.7,67.1,0.7,76v19.3h45.4V74.1
			C46.1,70.1,47.4,66.6,49.4,63.6z"/>
		<path d="M148.4,59.9c-1.3-0.4-2.7-1-4-1.8c7-3.2,11.9-10.2,11.9-18.4V34c0-11.1-9.1-20.2-20.2-20.2S116,22.9,116,34v5.7
			c0,8.2,5,15.4,12.2,18.5c-1.3,0.7-2.8,1.3-4.3,1.7c-2.6,0.7-5.6,1.9-8.3,3.6c2.2,3,3.7,6.6,3.7,10.6v21.2h45.4V76
			C164.6,67.1,153.9,61.4,148.4,59.9z"/>
	</g>
</svg>
