<svg version="1.1" id="Layer_1" xmlns="http://www.w3.org/2000/svg" xmlns:xlink="http://www.w3.org/1999/xlink" x="0px" y="0px" viewBox="0 0 149.5 89.8" style="enable-background:new 0 0 149.5 89.8;" xml:space="preserve">
    <style type="text/css">
    	.st0{fill:none;stroke:#000000;stroke-width:4;stroke-linecap:round;stroke-linejoin:round;stroke-miterlimit:10;}
    	.st1{stroke:#000000;stroke-width:0.9451;stroke-linecap:round;stroke-linejoin:round;stroke-miterlimit:10;}
    	.st2{fill:none;stroke:#000000;stroke-width:4.6114;stroke-linecap:round;stroke-linejoin:round;stroke-miterlimit:10;}
    </style>
    <path class="st0" d="M93.3,51.5c-1-0.3-2.1-0.8-3.2-1.3c6.6-2.7,11.3-9.2,11.3-16.7V22.4c0-9.9-9.4-19.8-20.7-19.8
    	C69.5,2.6,60,12.5,60,22.4v11.1c0,7.6,4.8,14.2,11.5,16.8c-1.1,0.5-2.2,1-3.4,1.3c-7,1.7-16.5,7.4-16.5,16.5v19h58.3v-19
    	C109.8,59,98.9,53.1,93.3,51.5z"/>
    <polygon class="st1" points="148.4,42.7 136.9,42.7 136.9,31.2 126.2,31.2 126.2,42.7 114.8,42.7 114.8,53.3 126.2,53.3 126.2,64.8
    	136.9,64.8 136.9,53.3 148.4,53.3 "/>
    <path class="st2" d="M44.5,57.8c-2.4-1.6-4.9-2.7-6.8-3.2c-1.1-0.3-2.3-0.9-3.4-1.5c6-2.7,10.1-8.7,10.1-15.6v-4.8
    	c0-9.4-7.7-17.2-17.2-17.2s-17.2,7.7-17.2,17.2v4.8c0,7,4.3,13.1,10.3,15.7c-1.1,0.6-2.3,1.1-3.6,1.4C11,56.1,3.1,60.8,3.1,68.3V87
    	h38.6V66.7C41.6,63.4,42.7,60.4,44.5,57.8z"/>
</svg>
