<svg version="1.1" id="Layer_1" xmlns="http://www.w3.org/2000/svg" xmlns:xlink="http://www.w3.org/1999/xlink" x="0px" y="0px" viewBox="0 0 70.3 96.8" style="enable-background:new 0 0 70.3 96.8;" xml:space="preserve">
	<g>
		<g>
			<g>
				<path class="st0" d="M10.8,46.7C4.8,46.7,0,41.8,0,35.9c0-6,4.8-10.8,10.8-10.8c6,0,10.8,4.9,10.8,10.8C21.6,41.8,16.8,46.7,10.8,46.7z
					 M10.8,28.5c-4.1,0-7.4,3.3-7.4,7.4c0,4.1,3.3,7.4,7.4,7.4c4.1,0,7.4-3.3,7.4-7.4C18.2,31.8,14.9,28.5,10.8,28.5z"/>
			</g>
			<g>
				<path class="st0" d="M35.2,46.7c-6,0-10.8-4.9-10.8-10.8c0-6,4.8-10.8,10.8-10.8c6,0,10.8,4.9,10.8,10.8C46,41.8,41.1,46.7,35.2,46.7z
					 M35.2,28.5c-4.1,0-7.4,3.3-7.4,7.4c0,4.1,3.3,7.4,7.4,7.4c4.1,0,7.4-3.3,7.4-7.4C42.5,31.8,39.2,28.5,35.2,28.5z"/>
			</g>
			<g>
				<path class="st0" d="M59.5,46.7c-6,0-10.8-4.9-10.8-10.8c0-6,4.8-10.8,10.8-10.8c6,0,10.8,4.9,10.8,10.8C70.3,41.8,65.5,46.7,59.5,46.7z
					 M59.5,28.5c-4.1,0-7.4,3.3-7.4,7.4c0,4.1,3.3,7.4,7.4,7.4c4.1,0,7.4-3.3,7.4-7.4C66.9,31.8,63.6,28.5,59.5,28.5z"/>
			</g>
		</g>
		<g>
			<g>
				<path class="st0" d="M10.8,21.6C4.8,21.6,0,16.8,0,10.8C0,4.8,4.8,0,10.8,0c6,0,10.8,4.9,10.8,10.8C21.6,16.8,16.8,21.6,10.8,21.6z M10.8,3.4
					c-4.1,0-7.4,3.3-7.4,7.4c0,4.1,3.3,7.4,7.4,7.4c4.1,0,7.4-3.3,7.4-7.4C18.2,6.7,14.9,3.4,10.8,3.4z"/>
			</g>
			<g>
				<path class="st0" d="M35.2,21.6c-6,0-10.8-4.9-10.8-10.8c0-6,4.8-10.8,10.8-10.8C41.1,0,46,4.9,46,10.8C46,16.8,41.1,21.6,35.2,21.6z
					 M35.2,3.4c-4.1,0-7.4,3.3-7.4,7.4c0,4.1,3.3,7.4,7.4,7.4c4.1,0,7.4-3.3,7.4-7.4C42.5,6.7,39.2,3.4,35.2,3.4z"/>
			</g>
			<g>
				<path class="st0" d="M59.5,21.6c-6,0-10.8-4.9-10.8-10.8c0-6,4.8-10.8,10.8-10.8c6,0,10.8,4.9,10.8,10.8C70.3,16.8,65.5,21.6,59.5,21.6z
					 M59.5,3.4c-4.1,0-7.4,3.3-7.4,7.4c0,4.1,3.3,7.4,7.4,7.4c4.1,0,7.4-3.3,7.4-7.4C66.9,6.7,63.6,3.4,59.5,3.4z"/>
			</g>
		</g>
		<g>
			<path class="st0" d="M35.2,96.8c-6,0-10.8-4.8-10.8-10.8c0-6,4.8-10.8,10.8-10.8c6,0,10.8,4.8,10.8,10.8C46,92,41.1,96.8,35.2,96.8z
				 M35.2,78.6c-4.1,0-7.4,3.3-7.4,7.4s3.3,7.4,7.4,7.4c4.1,0,7.4-3.3,7.4-7.4S39.2,78.6,35.2,78.6z"/>
		</g>
		<g>
			<g>
				<path class="st0" d="M10.8,71.8C4.8,71.8,0,66.9,0,60.9c0-6,4.8-10.8,10.8-10.8c6,0,10.8,4.8,10.8,10.8C21.6,66.9,16.8,71.8,10.8,71.8z
					 M10.8,53.6c-4.1,0-7.4,3.3-7.4,7.4s3.3,7.4,7.4,7.4c4.1,0,7.4-3.3,7.4-7.4C18.2,56.9,14.9,53.6,10.8,53.6z"/>
			</g>
			<g>
				<path class="st0" d="M35.2,71.8c-6,0-10.8-4.8-10.8-10.8c0-6,4.8-10.8,10.8-10.8c6,0,10.8,4.8,10.8,10.8C46,66.9,41.1,71.8,35.2,71.8z
					 M35.2,53.6c-4.1,0-7.4,3.3-7.4,7.4s3.3,7.4,7.4,7.4c4.1,0,7.4-3.3,7.4-7.4S39.2,53.6,35.2,53.6z"/>
			</g>
			<g>
				<path class="st0" d="M59.5,71.8c-6,0-10.8-4.8-10.8-10.8c0-6,4.8-10.8,10.8-10.8c6,0,10.8,4.8,10.8,10.8C70.3,66.9,65.5,71.8,59.5,71.8z
					 M59.5,53.6c-4.1,0-7.4,3.3-7.4,7.4s3.3,7.4,7.4,7.4c4.1,0,7.4-3.3,7.4-7.4S63.6,53.6,59.5,53.6z"/>
			</g>
		</g>
	</g>
</svg>
