<svg version="1.1" id="Layer_1" xmlns="http://www.w3.org/2000/svg" xmlns:xlink="http://www.w3.org/1999/xlink" x="0px" y="0px" viewBox="0 0 750 240" style="enable-background:new 0 0 750 240;" xml:space="preserve">
    <style type="text/css">
    	.st0{fill:#FFFFFF;}
    </style>
    <g>
    	<path class="st0" d="M265,135.7l-8-8.9v-21.8h23.5v16.1h-21.9v5l7,7.9h15.8v1.6H265z M278.9,106.7h-20.3v12.9h20.3V106.7z"/>
    	<path class="st0" d="M307.6,134.2h18.8v1.6H306v-31.1h1.6V134.2z"/>
    	<path class="st0" d="M349.8,134.2h18.8v1.6h-20.4v-31.1h1.6V134.2z"/>
    	<path class="st0" d="M392,136.2h-1.6v-31.5h1.6V136.2z"/>
    	<path class="st0" d="M437.3,135.7h-11.8l-9.2-9.2v-12.6l9.2-9.2h11.8l8.9,9.2v12.6L437.3,135.7z M444.6,114.5l-8-8.2h-10.5
    		l-8.2,8.2v11.3l8.2,8.4h10.5l8-8.4V114.5z"/>
    	<path class="st0" d="M494,105.1v1.6h-13.6v29.5h-1.6v-29.5h-13v-1.6H494z"/>
    </g>
</svg>
