<?xml version="1.0" encoding="utf-8"?>
<!-- Generator: Adobe Illustrator 19.2.1, SVG Export Plug-In . SVG Version: 6.00 Build 0)  -->
<svg version="1.1" id="Layer_1" xmlns="http://www.w3.org/2000/svg" xmlns:xlink="http://www.w3.org/1999/xlink" x="0px" y="0px"
	 viewBox="0 0 425.6 203.4" style="enable-background:new 0 0 425.6 203.4;" xml:space="preserve">
<style type="text/css">
	.st0{fill:#818080;}
	.st1{fill:#818080;stroke:#FFDE17;}
</style>
<g>
	<rect x="369.4" y="143" class="st0" width="12.4" height="44.7"/>
	<polygon class="st0" points="387,143 387,187.7 399,187.7 399,141 	"/>
	<path class="st0" d="M264,160.5c-4.8-1.7-9.1-2.8-9.1-5.3V155c0-1.8,1.6-3.1,4.7-3.1c3.3,0,7.7,1.6,12.1,4.2l4.9-8.8
		c-4.9-3.3-11.1-5.2-16.7-5.2c-9,0-16.4,5.1-16.4,14.2v0.2c0,8.7,7.1,11.6,13.4,13.5c4.9,1.5,9.3,2.4,9.3,5.2v0.2
		c0,2-1.7,3.3-5.4,3.3c-4.2,0-9.3-1.8-14.1-5.3l-5.4,8.4c5.9,4.7,13,6.8,19.2,6.8c9.7,0,17.2-4.5,17.2-14.5v-0.2
		C277.6,165.6,270.3,162.6,264,160.5z"/>
	<polygon class="st0" points="307.8,159.7 292.5,159.7 292.5,142.9 280.1,142.9 280.1,187.7 292.5,187.7 292.5,170.7 307.8,170.7
		307.8,187.7 320.2,187.7 320.2,142.9 307.8,142.9 	"/>
	<path class="st0" d="M162.7,142.9h-13.1v44.8h12.9c16.2,0,25.6-9.6,25.6-22.5V165C188,152.1,178.7,142.9,162.7,142.9z M176.1,165.4
		c0,3.8-1.3,6.9-3.7,9c-2.3,2.1-5.7,3.2-9.5,3.2h0h-1.7v-24.5l1.7,0c3.9,0,7.2,1.1,9.5,3.2c2.4,2.1,3.7,5.2,3.7,9V165.4z"/>
	<polygon class="st0" points="131.4,166.6 113,142.9 101,142.9 101,187.7 113.7,187.7 113.7,163.1 132.8,187.7 144.1,187.7
		144.1,142.9 131.4,142.9 	"/>
	<g>
		<path class="st0" d="M197.2,180.3l-13.1-37.5h12.4l7.3,21.1l6.9-21.1H223L205.4,193h-12.8L197.2,180.3z M197.2,180.3l-13.1-37.5"
			/>
	</g>
	<g>
		<path class="st0" d="M345.1,142.1c-13,0-22,10.5-22,23.1v0.2c0,13.6,9.9,23,23.3,23c8.1,0,14-3.2,18.2-8.3l-7.2-6.4
			c-3.5,3.2-6.6,4.6-10.8,4.6c-5.6,0-9.6-3-10.9-8.7h31c0.1-1.2,0.2-1.9,0.2-3.2v-0.2C366.8,153.6,360,142.1,345.1,142.1z
			 M335.5,161.7c1-5.7,4.4-9.5,9.6-9.5c5.3,0,8.7,3.8,9.4,9.5H335.5z"/>
	</g>
	<path class="st0" d="M82.4,148.2c-7.5-9-22.1-7.6-29.2,1.1l0,0c-7.1,8.6-7.1,23.4-0.1,32l0,0c6.8,8.4,22.2,10.8,29.3,1.3v5.1h13.1
		v-44.8H82.4V148.2 M82.6,165.4c0,15.8-21.8,15.8-21.8,0v-0.2c0-15.8,21.8-15.8,21.8,0V165.4"/>
	<g>
		<path class="st0" d="M312.8,54.6c0-2.1-0.4-17.2-8.9-27.6c-8.8-10.8-22.5-16.2-40.8-16.2h-43.3v117.3L183.2,10.8h-40.5L106,128.1
			V10.8H68.5V60H47.2V10.8H10.1v125.8h37.1V94.1h21.3v42.4h75.6l8.9-26h19.8l9,26h74.6v-35.3h6.2l17.3,35.3h40.2l-23.1-47.1
			C311.6,80.6,312.8,62.1,312.8,54.6z M154.8,85.2l7.9-22.3l8.2,22.3H154.8z M264.2,67.5h-7.7v-19h7.5c7.9,0,11.9,3.4,11.9,9.1
			C275.9,63.3,271.5,67.5,264.2,67.5z"/>
		<path class="st0" d="M404,32.8c-8.2-10-23.3-22-48.7-22h-35.1v125.8h52.5c29.4,0,46.5-30.4,46.5-60.5v-0.3
			C419.3,60.3,413.7,44.6,404,32.8z M383.8,76.9c0,16.7-7.5,25.2-19.6,25.2h-7.6V48.4h6.1c13.7,0,21.1,12.8,21.1,28.2V76.9z"/>
	</g>
	<g>
		<path class="st0" d="M31.8,188.7c-13.5,0-23.3-10.4-23.3-23.2v-0.2c0-12.8,9.8-23.3,23.5-23.3c8.1,0,12,1.8,16.3,5
			c0,0-2,2.4-3,4.5c-1.4,2.6-2.4,5.5-2.4,5.5c-3-2.9-6.5-4-10.2-4c-6.4,0-11.6,5.6-11.6,12.2v0.2c0,6.9,4.7,12.4,11.6,12.4
			c4.3,0,7.5-1.9,10.6-4.8c0,0,0.7,2.8,2,5.4c1.4,2.6,3,4.5,3,4.5C45,186.3,40.2,188.7,31.8,188.7z"/>
	</g>
	<path class="st1" d="M196.4,142.9"/>
	<path class="st1" d="M209.5,180.3"/>
</g>
</svg>
