<svg version="1.1" id="Layer_1" xmlns="http://www.w3.org/2000/svg" xmlns:xlink="http://www.w3.org/1999/xlink" x="0px" y="0px" viewBox="0 0 47 58" style="enable-background:new 0 0 47 58;" xml:space="preserve">
	<g>
		<path class="st0" d="M39,28c-0.5,0-1,0.5-1,1v6c0,7.7-6.3,14-14,14s-14-6.3-14-14v-6c0-0.5-0.4-1-1-1s-1,0.5-1,1v6c0,8.5,6.6,15.4,15,16v5h-5
			c-0.5,0-1,0.5-1,1s0.5,1,1,1h12c0.5,0,1-0.5,1-1s-0.5-1-1-1h-5v-5c8.4-0.5,15-7.5,15-16v-6C40,28.5,39.5,28,39,28z"/>
		<path class="st0" d="M24,46c6.1,0,11-4.9,11-11V11c0-6.1-4.9-11-11-11S13,4.9,13,11v24C13,41.1,17.9,46,24,46z M15,11c0-5,4-9,9-9s9,4,9,9v24
			c0,5-4,9-9,9s-9-4-9-9V11z"/>
	</g>
</svg>