<?xml version="1.0" encoding="utf-8"?>
<!-- Generator: Adobe Illustrator 19.2.0, SVG Export Plug-In . SVG Version: 6.00 Build 0)  -->
<svg version="1.1" id="Layer_1" xmlns="http://www.w3.org/2000/svg" xmlns:xlink="http://www.w3.org/1999/xlink" x="0px" y="0px"
	 viewBox="0 0 47 58" style="enable-background:new 0 0 47 58;" xml:space="preserve">
<g>
	<path d="M39,28c-0.5,0-1,0.5-1,1v6c0,7.7-6.3,14-14,14s-14-6.3-14-14v-6c0-0.5-0.4-1-1-1s-1,0.5-1,1v6c0,8.5,6.6,15.4,15,16v5h-5
		c-0.5,0-1,0.5-1,1s0.5,1,1,1h12c0.5,0,1-0.5,1-1s-0.5-1-1-1h-5v-5c8.4-0.5,15-7.5,15-16v-6C40,28.5,39.5,28,39,28z"/>
	<path d="M24,46c6.1,0,11-4.9,11-11V11c0-6.1-4.9-11-11-11S13,4.9,13,11v24C13,41.1,17.9,46,24,46z M15,11c0-5,4-9,9-9s9,4,9,9v24
		c0,5-4,9-9,9s-9-4-9-9V11z"/>
	<path d="M46.7,4.3c-0.4-0.4-1-0.4-1.4,0l-9,9c-0.4,0.4-0.4,1,0,1.4c0.2,0.2,0.4,0.3,0.7,0.3s0.5-0.1,0.7-0.3l9-9
		C47.1,5.3,47.1,4.7,46.7,4.3z"/>
	<path d="M31.7,20.7c0.4-0.4,0.4-1,0-1.4s-1-0.4-1.4,0l-14,14c-0.4,0.4-0.4,1,0,1.4c0.2,0.2,0.4,0.3,0.7,0.3s0.5-0.1,0.7-0.3
		L31.7,20.7z"/>
	<path d="M7.3,42.3l-7,7c-0.4,0.4-0.4,1,0,1.4C0.5,50.9,0.7,51,1,51s0.5-0.1,0.7-0.3l7-7c0.4-0.4,0.4-1,0-1.4S7.7,41.9,7.3,42.3z"/>
</g>
</svg>
