<svg version="1.1" id="pencil" xmlns="http://www.w3.org/2000/svg" xmlns:xlink="http://www.w3.org/1999/xlink" x="0px" y="0px" viewBox="0 0 25.4 25.1" style="enable-background:new 0 0 25.4 25.1;" xml:space="preserve">
	<style type="text/css">
		.st0 {
			fill-rule: evenodd;
			clip-rule: evenodd;
		}
		.st1 {
			fill-rule: evenodd;
			clip-rule: evenodd;
			fill: none;
			stroke: #000000;
			stroke-width: 0.9077;
			stroke-miterlimit: 10;
		}

		.st2 {
			fill-rule: evenodd;
			clip-rule: evenodd;
			fill: none;
			stroke: #000000;
			stroke-width: 0.9077;
			stroke-linecap: round;
			stroke-linejoin: round;
			stroke-miterlimit: 10;
		}
	</style>
	<g>
		<polygon class="st0" points="5.4,22.5 1.5,23.9 3,20.1 	"/>
	</g>
	<polygon class="st1" points="3.6,16.4 15.9,4.2 21.3,9.6 9,21.9 1.9,23.5 "/>
	<g>
		<path class="st0" d="M15.8,4.1l1.3-1.3c0.7-0.7,1.4-1.1,2.1-1.1c0.4,0,0.8,0.2,1.2,0.5l2.8,2.8c0.4,0.4,0.6,0.9,0.5,1.3
			c0,0.6-0.4,1.2-1.1,1.9l-1.3,1.3L15.8,4.1z"/>
		<path d="M19.2,2.1c0.3,0,0.7,0.1,1,0.4l2.8,2.8c0.7,0.7,0.5,1.7-0.6,2.8l-1.1,1.1l-5-5l1.1-1.1C18,2.4,18.6,2.1,19.2,2.1 M19.2,1.4
			c-0.7,0-1.4,0.4-2.3,1.2l0,0l-1.6,1.6l6,6l1.6-1.6c1.6-1.6,1.4-2.9,0.6-3.8L20.6,2C20.2,1.6,19.7,1.4,19.2,1.4L19.2,1.4z"/>
	</g>
	<line class="st2" x1="3.6" y1="16.4" x2="9" y2="21.9"/>
</svg>
