<svg version="1.1" id="Layer_1" xmlns="http://www.w3.org/2000/svg" xmlns:xlink="http://www.w3.org/1999/xlink" x="0px" y="0px" viewBox="0 0 84.4 84.1" style="enable-background:new 0 0 84.4 84.1;" xml:space="preserve">
    <style type="text/css">
    	.st0 {
            fill: none;
            stroke: #000000;
            stroke-miterlimit: 10;
        }
    </style>
    <path class="st0" d="M8.8,5.7C1.7,12.9,1.3,22,1.3,22C3.1,30.9,13,47,25,59c12,12,28.2,21.9,37,23.7c0,0,9.1-0.4,16.3-7.5l0,0
	l4.2-4.2c0.6-0.6,0.6-1.5,0-2.1l-18-18c-0.6-0.6-1.5-0.6-2,0l-4.2,4.2l0,0l-4,4.9c0,0-7.6-1.6-18.2-12.3
	C25.5,37.3,23.9,29.7,23.9,29.7l5-4l0,0l0.1-0.1h0l0,0l4.1-4.1c0.6-0.6,0.6-1.5,0-2l-18-18c-0.6-0.6-1.5-0.6-2,0L8.8,5.7L8.8,5.7z"
	/>
</svg>
