<svg version="1.1" id="Layer_1" xmlns="http://www.w3.org/2000/svg" xmlns:xlink="http://www.w3.org/1999/xlink" x="0px" y="0px" viewBox="0 0 72 58.8" style="enable-background:new 0 0 72 58.8;" xml:space="preserve">
	<style type="text/css">
		.st0 {
			fill: none;
			
			stroke-miterlimit: 10;
		}
	</style>
	<path class="st0" d="M71.5,43l-11-41.6c-0.2-0.8-1.1-1.1-1.8-0.7L1.1,35.1c-0.5,0.3-0.7,0.8-0.5,1.3l3.2,13c0.1,0.6,0.7,1,1.3,0.9
	L17,49.2c0.5,0,1,0.2,1.2,0.7c0.7,1.9,1.9,3.6,3.5,5c2.4,2.2,5.5,3.3,8.7,3.3c0.3,0,0.5,0,0.8,0c3.5-0.2,6.7-1.8,9.1-4.4
	c1.6-1.8,2.6-3.9,3.1-6.2c0.1-0.5,0.6-0.9,1.1-0.9l26-2.3C71.1,44.4,71.6,43.7,71.5,43z M37.2,51.3c-1.6,1.8-3.8,2.9-6.3,3.1
	c-3.2,0.2-6.2-1.3-7.9-3.8c-0.5-0.7,0-1.8,0.9-1.9l13.5-1.3c0.9-0.1,1.6,0.9,1.2,1.7C38.3,49.9,37.8,50.6,37.2,51.3z"/>
</svg>
