<svg version="1.1" xmlns="http://www.w3.org/2000/svg" xmlns:xlink="http://www.w3.org/1999/xlink" x="0px" y="0px" viewBox="0 0 55.6 62.2" style="enable-background:new 0 0 55.6 62.2;" xml:space="preserve">
	<style type="text/css">
		.st0 {
			fill: none;
		}
		.st1 {
			fill: #fff;
		}
		.st2 {
			display: none;
		}
		.st3 {
			display: inline;
			fill: none;
			stroke: #fff;
			stroke-width: 5;
			stroke-miterlimit: 10;
		}
	</style>
	<g id="Layer_2_copy">
		<g>
			<rect x="19.4" y="20.9" class="st0" width="17" height="20.7"/>
			<polygon class="st0" points="14.4,20.9 6.4,20.9 6.4,55.9 36.4,55.9 36.4,46.5 14.4,46.5 		"/>
			<polygon class="st0" points="41.4,41.5 49.4,41.5 49.4,6.5 19.4,6.5 19.4,15.9 41.4,15.9 		"/>
			<polygon class="st1" points="54.4,1.5 14.4,1.5 14.4,15.9 19.4,15.9 19.4,6.5 49.4,6.5 49.4,41.5 41.4,41.5 41.4,46.5 54.4,46.5
						"/>
			<polygon class="st1" points="36.4,55.9 6.4,55.9 6.4,20.9 14.4,20.9 14.4,15.9 1.4,15.9 1.4,60.9 41.4,60.9 41.4,46.5 36.4,46.5
						"/>
			<polygon class="st1" points="36.4,20.9 36.4,41.5 41.4,41.5 41.4,15.9 19.4,15.9 19.4,20.9 		"/>
			<rect x="14.4" y="15.9" class="st1" width="5" height="5"/>
			<rect x="36.4" y="41.5" class="st1" width="5" height="5"/>
		</g>
	</g>
	<g id="Layer_2" class="st2">
		<rect x="16.9" y="4" class="st3" width="35" height="40"/>
		<rect x="5.9" y="16.4" class="st3" width="35" height="40"/>
	</g>
</svg>
