<svg version="1.1" id="Layer_1" xmlns="http://www.w3.org/2000/svg" xmlns:xlink="http://www.w3.org/1999/xlink" x="0px" y="0px" viewBox="0 0 50 79" style="enable-background:new 0 0 50 79;" xml:space="preserve">
    <path d="M41.7,77.5c0,0,0.1,0.1,0.1,0.1c1.3,1,2.5,1.4,3.8,1.4c1.4,0,2.6-0.6,3.4-1.8c0.7-1,1.1-2.2,1.1-3.8v-68
	C50,1.7,47.8,0,45.6,0c-1.2,0-2.5,0.5-3.8,1.4c0,0-0.1,0.1-0.1,0.1L24.2,16.7c-3,2.3-5.5,3.3-8,3.3H8c-4.5,0-8,3.6-8,8.3v22.4
	C0,55.4,3.5,59,8,59h8.2c2.5,0,5,1,8,3.3L41.7,77.5z M8,55c-2.2,0-4-1.9-4-4.3V28.3C4,25.9,5.8,24,8,24h8.2c4.4,0,8.1-2.4,10.5-4.2
	c0,0,0.1-0.1,0.1-0.1L44.2,4.6C45,4,45.4,4,45.6,4C45.8,4,46,4.6,46,5.5v68c0,1-0.2,1.4-0.3,1.5C45.6,75,45.6,75,45.5,75
	c-0.1,0-0.6,0-1.3-0.6L26.8,59.3c0,0-0.1-0.1-0.1-0.1c-2.4-1.8-6-4.1-10.4-4.1H8z"/>
</svg>
