<svg version="1.1" id="Layer_1" xmlns="http://www.w3.org/2000/svg" xmlns:xlink="http://www.w3.org/1999/xlink" x="0px" y="0px" viewBox="0 0 82.8 14.5" style="enable-background:new 0 0 82.8 14.5;" xml:space="preserve">
    <style type="text/css">
    	.st0 {
            fill: none;
            stroke: #ffffff;
            stroke-width: 0.5;
            stroke-linecap: round;
            stroke-linejoin: round;
            stroke-miterlimit: 10;
            stroke-opacity: 0.1;
        }
    </style>
    <path class="st0" d="M1.4,6.2c3.7,0,3.7,5.5,7.5,5.5c3.7,0,3.7-5.5,7.5-5.5c3.7,0,6.7,5.5,10.5,5.5c3.7,0,3.7-10.5,7.5-10.5
    	c3.7,0,3.7,10.5,7.5,10.5c3.7,0,3.7-5.5,7.5-5.5c3.7,0,3.7,7.5,7.5,7.5c3.7,0,6.7-9.5,10.5-9.5c3.7,0,3.7,5.5,7.5,5.5
    	c3.7,0,3.7-5.5,7.5-5.5"/>
</svg>
